<?xml version="1.0" standalone="no"?>
<!DOCTYPE svg PUBLIC "-//W3C//DTD SVG 20010904//EN"
 "http://www.w3.org/TR/2001/REC-SVG-20010904/DTD/svg10.dtd">
<svg version="1.0" xmlns="http://www.w3.org/2000/svg"
 width="512.000000pt" height="512.000000pt" viewBox="0 0 512.000000 512.000000"
 preserveAspectRatio="xMidYMid meet">
<metadata>
Created by potrace 1.16, written by Peter Selinger 2001-2019
</metadata>
<g transform="translate(0.000000,512.000000) scale(0.100000,-0.100000)"
fill="#FF6600" stroke="none">
<path d="M2420 5109 c-911 -46 -1740 -592 -2145 -1414 -186 -376 -266 -719
-266 -1135 0 -416 80 -759 266 -1135 382 -776 1148 -1311 2010 -1405 129 -14
421 -14 550 0 572 63 1121 326 1530 735 409 409 672 958 735 1530 14 129 14
421 0 550 -72 661 -418 1295 -931 1707 -412 332 -948 543 -1434 564 -66 2
-133 6 -150 7 -16 2 -91 0 -165 -4z m437 -849 c375 -64 749 -273 999 -559 237
-271 382 -600 425 -966 22 -190 -1 -464 -55 -653 l-22 -77 -262 -3 -262 -2 0
722 0 723 -558 -558 c-306 -306 -562 -557 -567 -557 -5 0 -261 251 -567 557
l-558 558 0 -723 0 -722 -262 2 -263 3 -22 85 c-49 183 -57 255 -57 470 0 182
3 219 27 331 146 694 667 1216 1356 1360 200 42 433 45 648 9z m-670 -2062
l373 -373 375 375 375 375 0 -457 0 -458 365 -2 365 -3 -46 -70 c-313 -471
-865 -765 -1434 -765 -196 0 -363 27 -551 90 -359 119 -672 355 -888 670 l-52
75 366 3 365 2 0 455 c0 250 3 455 7 455 5 0 176 -168 380 -372z"/>
</g>
</svg>
